<?xml version="1.0" encoding="UTF-8"?>
<svg width="74px" height="34px" viewBox="0 0 74 34" version="1.1" xmlns="http://www.w3.org/2000/svg" xmlns:xlink="http://www.w3.org/1999/xlink">
    <!-- Generator: Sketch 48.2 (47327) - http://www.bohemiancoding.com/sketch -->
    <title>path-1</title>
    <desc>Created with Sketch.</desc>
    <defs></defs>
    <g id="Page-1" stroke="none" stroke-width="1" fill="none" fill-rule="evenodd">
        <path d="M26.806816,0 C15.9496151,0.0331140906 3.59409801,2.11758158 0.799592273,8.21229446 C-4.37441489,19.5007589 17.2544058,26.0457374 17.2544058,26.0457374 L18.9776414,12.831065 L21.1008292,26.0457374 L27.8694851,26.0457374 L34.7688781,13.0886668 L32.2474581,25.9175816 L38.3508169,24.8897546 L41.1380117,10.9057172 L44.1901211,27.8407792 L50.6930022,27.7139135 L59.5831257,11.8036681 C59.5831257,11.8036681 70.2179876,17.882039 66.2163138,22.8384012 C59.3126203,31.3891475 37.4236155,28.6110043 37.4236155,28.6110043 L38.3508169,25.6599798 L28.6650892,27.4580319 L36.4938338,34 L37.0253834,31.0494055 C37.0253834,31.0494055 71.9235908,35.2837086 73.3823417,22.5812294 C74.2678276,14.8634961 60.6427844,8.72534784 60.6427844,8.72534784 L55.0709752,8.85264356 L48.5685241,20.2709841 L45.6505923,6.28651657 L33.3096971,6.15879079 L25.3480651,19.631065 L22.4279829,6.03106501 L14.9970404,6.15879079 L13.2729448,18.0906147 C13.2729448,18.0906147 7.41944866,14.5289147 7.81079988,10.1582848 C8.34148934,4.25623577 21.9046044,2.39754617 28.6650892,2.69557298 C37.4236155,3.08090058 40.873527,3.59395396 48.3027494,5.64788768 C48.6863596,5.75110043 46.710681,8.08370858 46.710681,8.08370858 L57.1950232,8.08499874 L50.4272274,0.387047812 L49.4987359,3.33592208 C49.4987359,3.33592208 39.681411,0.0404249937 27.2334319,0 L26.806816,0 Z" id="path-1" fill="#FFFFFF"></path>
    </g>
</svg>